<svg width="18" height="17" viewBox="0 0 18 17" fill="none" xmlns="http://www.w3.org/2000/svg">
<path d="M5.04597 1.8818C5.02244 0.813602 4.25857 0 3.01815 0C1.77774 0 0.966797 0.813602 0.966797 1.8818C0.966797 2.92787 1.75377 3.7649 2.97108 3.7649H2.99426C4.25857 3.7649 5.04597 2.92787 5.04597 1.8818Z" fill="white"/>
<path d="M4.80716 5.25195H1.18121V16.1464H4.80716V5.25195Z" fill="white"/>
<path d="M13.7089 4.99609C16.0949 4.99609 17.8837 6.55352 17.8837 9.89983L17.8836 16.1464H14.2578V10.3178C14.2578 8.85384 13.7331 7.85484 12.4205 7.85484C11.4187 7.85484 10.8221 8.52831 10.56 9.17878C10.4641 9.4119 10.4406 9.73671 10.4406 10.0623V16.1467H6.81421C6.81421 16.1467 6.862 6.27449 6.81421 5.25221H10.4406V6.79532C10.9218 6.05352 11.7838 4.99609 13.7089 4.99609Z" fill="white"/>
</svg>
