<svg width="16" height="14" viewBox="0 0 16 14" fill="none" xmlns="http://www.w3.org/2000/svg">
<path fill-rule="evenodd" clip-rule="evenodd" d="M8.0208 4.00461L8.05438 4.55825L7.49479 4.49045C5.45791 4.23058 3.67843 3.34929 2.16756 1.86916L1.42891 1.13474L1.23865 1.67708C0.83575 2.88604 1.09316 4.16279 1.93253 5.02149C2.3802 5.49604 2.27948 5.56383 1.50725 5.28136C1.23865 5.19097 1.00363 5.12318 0.981242 5.15708C0.9029 5.23617 1.1715 6.26435 1.38414 6.6711C1.67513 7.23604 2.26828 7.78967 2.9174 8.11734L3.46579 8.37721L2.81668 8.3885C2.18994 8.3885 2.16756 8.3998 2.23471 8.63708C2.45854 9.37149 3.34268 10.1511 4.32755 10.4901L5.02143 10.7273L4.41708 11.0889C3.52175 11.6086 2.46973 11.9024 1.41772 11.925C0.914092 11.9363 0.5 11.9815 0.5 12.0154C0.5 12.1284 1.86538 12.7611 2.65999 13.0097C5.04382 13.7441 7.87531 13.4277 10.0017 12.1736C11.5126 11.281 13.0235 9.50708 13.7286 7.78967C14.1091 6.87448 14.4896 5.20227 14.4896 4.40006C14.4896 3.88032 14.5232 3.81253 15.1499 3.1911C15.5192 2.82955 15.8662 2.43409 15.9333 2.3211C16.0452 2.10643 16.034 2.10643 15.4633 2.29851C14.512 2.63747 14.3777 2.59227 14.8477 2.08383C15.1947 1.72227 15.6088 1.06695 15.6088 0.874871C15.6088 0.840975 15.4409 0.897468 15.2506 0.999157C15.0492 1.11214 14.6015 1.28162 14.2658 1.38331L13.6614 1.57539L13.113 1.20253C12.8108 0.999157 12.3856 0.773183 12.1617 0.705391C11.5909 0.547209 10.718 0.569806 10.2032 0.750585C8.80422 1.25903 7.92008 2.56968 8.0208 4.00461Z" fill="white"/>
</svg>
