<svg width="19" height="13" viewBox="0 0 19 13" fill="none" xmlns="http://www.w3.org/2000/svg">
<path fill-rule="evenodd" clip-rule="evenodd" d="M16.1679 0.500008C16.9022 0.701518 17.4805 1.29526 17.6768 2.04927C18.0335 3.41581 18.0335 6.26712 18.0335 6.26712C18.0335 6.26712 18.0335 9.11833 17.6768 10.485C17.4805 11.239 16.9022 11.8327 16.1679 12.0343C14.8371 12.4005 9.50013 12.4005 9.50013 12.4005C9.50013 12.4005 4.16321 12.4005 2.8323 12.0343C2.09795 11.8327 1.51962 11.239 1.32335 10.485C0.966797 9.11833 0.966797 6.26712 0.966797 6.26712C0.966797 6.26712 0.966797 3.41581 1.32335 2.04927C1.51962 1.29526 2.09795 0.701518 2.8323 0.500008C4.16321 0.133789 9.50013 0.133789 9.50013 0.133789C9.50013 0.133789 14.8371 0.133789 16.1679 0.500008ZM7.90015 3.86707V9.2004L12.1668 6.53383L7.90015 3.86707Z" fill="white"/>
</svg>
